<svg xmlns="http://www.w3.org/2000/svg" viewBox="0 0 48.45 48.45"><defs><style>.cls-1{fill:#fff;}</style></defs><title>Asset 2</title><g id="Layer_2" data-name="Layer 2"><g id="Layer_6" data-name="Layer 6"><g id="side_bar" data-name="side bar"><path class="cls-1" d="M39.36,0H9.08A9.09,9.09,0,0,0,0,9.08V39.36a9.09,9.09,0,0,0,9.08,9.08H39.36a9.09,9.09,0,0,0,9.08-9.08V9.08A9.09,9.09,0,0,0,39.36,0Zm-19,11.28A1.29,1.29,0,0,1,21.66,10h5.13a1.29,1.29,0,0,1,1.28,1.28v3.85a1.29,1.29,0,0,1-1.28,1.28H21.66a1.29,1.29,0,0,1-1.28-1.28ZM30.64,36.95a1.29,1.29,0,0,1-1.28,1.28H19.09a1.29,1.29,0,0,1-1.28-1.28V34.38a1.29,1.29,0,0,1,1.28-1.28h1.28V25.4H19.09a1.29,1.29,0,0,1-1.28-1.28V21.55a1.29,1.29,0,0,1,1.28-1.28h7.7a1.29,1.29,0,0,1,1.28,1.28V33.1h1.28a1.29,1.29,0,0,1,1.28,1.28Z"/></g></g></g></svg>