<svg xmlns="http://www.w3.org/2000/svg" viewBox="0 0 48.45 48.44"><defs><style>.cls-1{fill:#fff;fill-rule:evenodd;}</style></defs><title>Asset 1</title><g id="Layer_2" data-name="Layer 2"><g id="Layer_6" data-name="Layer 6"><g id="side_bar" data-name="side bar"><path class="cls-1" d="M48.45,9.08V39.36a9.09,9.09,0,0,1-9.08,9.08H9.09A9.09,9.09,0,0,1,0,39.36V9.08A9.09,9.09,0,0,1,9.09,0H39.37A9.09,9.09,0,0,1,48.45,9.08Zm-8.54,17.6V16.41a1.29,1.29,0,0,0-1.28-1.28H14.55c-.2-1-.24-2.57-1.59-2.57H7.83a1.29,1.29,0,0,0,0,2.57h4.09l3.55,16.5a10.36,10.36,0,0,0-1.22,2.75,1.29,1.29,0,0,0,1.28,1.28h1.28a2.57,2.57,0,1,0,2.57,2.57,2.58,2.58,0,0,0-2.57-2.57h18a2.57,2.57,0,1,0,2.56,2.57,2.58,2.58,0,0,0-2.56-2.57h1.28a1.29,1.29,0,0,0,0-2.57H17.61a3,3,0,0,0,.48-1.28,6.65,6.65,0,0,0-.26-1.4L38.77,28A1.31,1.31,0,0,0,39.91,26.68Z"/></g></g></g></svg>