<svg xmlns="http://www.w3.org/2000/svg" viewBox="0 0 48.45 48.45"><defs><style>.cls-1{fill:#fff;}</style></defs><title>Asset 3</title><g id="Layer_2" data-name="Layer 2"><g id="Layer_6" data-name="Layer 6"><g id="side_bar" data-name="side bar"><path class="cls-1" d="M48.45,9.08V39.36a9.09,9.09,0,0,1-9.08,9.08H9.08A9.09,9.09,0,0,1,0,39.36V9.08A9.09,9.09,0,0,1,9.08,0H39.36A9.09,9.09,0,0,1,48.45,9.08Zm-11.1,3H11.1a3,3,0,0,0-3,3c0,1.7,1.77,3.56,3.09,4.45,2.78,1.86,5.65,3.6,8.42,5.42,1.2.79,3.19,2.24,4.64,2.24S27.66,25.8,28.86,25c2.81-1.83,5.61-3.63,8.42-5.49,1.23-.82,3.09-2.71,3.09-4.29A3,3,0,0,0,37.34,12.11Zm3,7.44a9.63,9.63,0,0,1-2,1.73c-3,2-6,3.78-9,5.8-1.48,1-3.31,2.18-5.17,2.18s-3.69-1.14-5.17-2.18c-2.93-2-6-3.82-9-5.83-.73-.47-1.29-1.17-2-1.7V33.31a3,3,0,0,0,3,3H37.34a3,3,0,0,0,3-3Z"/></g></g></g></svg>